<svg width="32" height="33" viewBox="0 0 32 33" fill="none" xmlns="http://www.w3.org/2000/svg">
<g clip-path="url(#clip0_21_31)">
<g clip-path="url(#clip1_21_31)">
<path d="M16 9.11011C16.9946 9.11011 17.9484 8.71502 18.6517 8.01176C19.3549 7.3085 19.75 6.35467 19.75 5.36011C19.75 4.36555 19.3549 3.41172 18.6517 2.70846C17.9484 2.0052 16.9946 1.61011 16 1.61011C15.0055 1.61011 14.0516 2.0052 13.3484 2.70846C12.6451 3.41172 12.25 4.36555 12.25 5.36011C12.25 6.35467 12.6451 7.3085 13.3484 8.01176C14.0516 8.71502 15.0055 9.11011 16 9.11011ZM16 3.11011C16.2955 3.11011 16.5881 3.16831 16.8611 3.28138C17.134 3.39445 17.3821 3.56019 17.591 3.76912C17.7999 3.97805 17.9657 4.22609 18.0787 4.49907C18.1918 4.77205 18.25 5.06463 18.25 5.36011C18.25 5.65558 18.1918 5.94816 18.0787 6.22115C17.9657 6.49413 17.7999 6.74217 17.591 6.9511C17.3821 7.16003 17.134 7.32576 16.8611 7.43884C16.5881 7.55191 16.2955 7.61011 16 7.61011C15.4033 7.61011 14.831 7.37305 14.409 6.9511C13.9871 6.52914 13.75 5.95684 13.75 5.36011C13.75 4.76337 13.9871 4.19107 14.409 3.76912C14.831 3.34716 15.4033 3.11011 16 3.11011ZM27.11 17.2871L21.459 10.8801C21.1071 10.4809 20.6742 10.1613 20.1892 9.94229C19.7042 9.72332 19.1782 9.61009 18.646 9.61011H13.354C12.8219 9.60996 12.2959 9.72304 11.8109 9.94184C11.3259 10.1606 10.893 10.4801 10.541 10.8791L4.89001 17.2871C4.68003 17.4951 4.51307 17.7425 4.39868 18.015C4.28428 18.2875 4.22468 18.5799 4.22329 18.8755C4.22048 19.4724 4.45491 20.046 4.87501 20.4701C5.29512 20.8942 5.86648 21.134 6.46341 21.1368C7.06033 21.1396 7.63393 20.9052 8.05801 20.4851L10.696 18.3691L8.43001 26.9751C8.1823 27.518 8.1604 28.1371 8.36913 28.6961C8.57786 29.2552 9.00011 29.7084 9.54301 29.9561C10.0859 30.2038 10.705 30.2257 11.264 30.017C11.8231 29.8083 12.2763 29.386 12.524 28.8431L16 22.8601L19.476 28.8491C19.5987 29.1179 19.7731 29.3599 19.9893 29.5614C20.2054 29.7628 20.4592 29.9196 20.736 30.023C21.0128 30.1263 21.3073 30.1742 21.6026 30.1637C21.8979 30.1533 22.1882 30.0848 22.457 29.9621C22.7258 29.8395 22.9679 29.6651 23.1693 29.4489C23.3707 29.2327 23.5275 28.9789 23.6309 28.7021C23.7343 28.4253 23.7821 28.1308 23.7716 27.8356C23.7612 27.5403 23.6927 27.2499 23.57 26.9811L21.304 18.3731L23.943 20.4851C24.37 20.8882 24.9377 21.1084 25.5249 21.0986C26.112 21.0888 26.6721 20.8499 27.0855 20.4329C27.4988 20.0158 27.7328 19.4537 27.7374 18.8665C27.742 18.2793 27.5168 17.7136 27.11 17.2901V17.2871ZM26.031 19.3901C25.9614 19.4598 25.8787 19.5151 25.7876 19.5528C25.6966 19.5905 25.599 19.6099 25.5005 19.6099C25.402 19.6099 25.3044 19.5905 25.2134 19.5528C25.1224 19.5151 25.0397 19.4598 24.97 19.3901C24.9512 19.3702 24.9308 19.3518 24.909 19.3351L20.47 15.7751C20.347 15.6763 20.196 15.6189 20.0384 15.6109C19.8808 15.603 19.7248 15.6449 19.5924 15.7307C19.4601 15.8166 19.3581 15.942 19.3012 16.0891C19.2442 16.2362 19.235 16.3975 19.275 16.5501L22.134 27.4161C22.1465 27.4588 22.1618 27.5005 22.18 27.5411C22.2216 27.6304 22.2453 27.727 22.2496 27.8255C22.2538 27.9239 22.2387 28.0222 22.205 28.1148C22.1713 28.2074 22.1197 28.2924 22.0531 28.365C21.9865 28.4377 21.9063 28.4965 21.817 28.5381C21.7277 28.5797 21.6311 28.6034 21.5327 28.6077C21.4342 28.6119 21.3359 28.5968 21.2433 28.5631C21.1508 28.5294 21.0657 28.4778 20.9931 28.4112C20.9205 28.3446 20.8616 28.2644 20.82 28.1751C20.8109 28.1545 20.8006 28.1344 20.789 28.1151L16.649 20.9851C16.5831 20.8713 16.4885 20.7769 16.3746 20.7112C16.2607 20.6456 16.1315 20.611 16 20.611C15.8685 20.611 15.7394 20.6456 15.6255 20.7112C15.5116 20.7769 15.4169 20.8713 15.351 20.9851L11.211 28.1161C11.1994 28.1354 11.1891 28.1555 11.18 28.1761C11.0961 28.3565 10.9439 28.4961 10.757 28.5642C10.5702 28.6324 10.3639 28.6235 10.1835 28.5396C10.0032 28.4557 9.86355 28.3035 9.79538 28.1166C9.72721 27.9298 9.73607 27.7235 9.82001 27.5431C9.83824 27.5026 9.85361 27.4608 9.86601 27.4181L12.725 16.5511C12.7644 16.3991 12.755 16.2386 12.6984 16.0922C12.6417 15.9459 12.5405 15.8209 12.409 15.7351C12.2875 15.6551 12.1455 15.6117 12 15.6101C11.8291 15.61 11.6633 15.6682 11.53 15.7751L7.09101 19.3351C7.06927 19.3518 7.04887 19.3702 7.03001 19.3901C6.88932 19.5308 6.69849 19.6098 6.49951 19.6098C6.30054 19.6098 6.10971 19.5308 5.96901 19.3901C5.82832 19.2494 5.74927 19.0586 5.74927 18.8596C5.74927 18.6606 5.82832 18.4698 5.96901 18.3291L6.00001 18.2951L11.665 11.8711C11.8763 11.6318 12.1361 11.4401 12.4271 11.3089C12.7181 11.1777 13.0338 11.1099 13.353 11.1101H18.645C18.9643 11.1099 19.2799 11.1777 19.5709 11.3089C19.862 11.4401 20.1217 11.6318 20.333 11.8711L26 18.2951L26.032 18.3291C26.1019 18.3986 26.1574 18.4813 26.1953 18.5723C26.2332 18.6634 26.2527 18.761 26.2527 18.8596C26.2527 18.9582 26.2332 19.0558 26.1953 19.1469C26.1574 19.2379 26.1009 19.3206 26.031 19.3901Z" fill="#F21E84"/>
</g>
</g>
<defs>
<clipPath id="clip0_21_31">
<rect width="32" height="32" fill="white" transform="translate(0 0.360107)"/>
</clipPath>
<clipPath id="clip1_21_31">
<rect width="32" height="32" fill="white" transform="translate(0 0.360107)"/>
</clipPath>
</defs>
</svg>
