<svg width="32" height="33" viewBox="0 0 32 33" fill="none" xmlns="http://www.w3.org/2000/svg">
<g clip-path="url(#clip0_21_24)">
<g clip-path="url(#clip1_21_24)">
<g clip-path="url(#clip2_21_24)">
<path d="M28.75 14.3601C28.75 13.6307 28.4603 12.9313 27.9445 12.4155C27.4288 11.8998 26.7293 11.6101 26 11.6101H16.75V10.0351C17.5965 9.86113 18.3571 9.40061 18.9036 8.73115C19.4501 8.0617 19.749 7.22427 19.75 6.36008C19.75 2.99808 16.552 0.826076 16.416 0.735076C16.2928 0.652953 16.1481 0.609131 16 0.609131C15.8519 0.609131 15.7072 0.652953 15.584 0.735076C15.448 0.826076 12.25 2.99808 12.25 6.36008C12.251 7.22427 12.5499 8.0617 13.0964 8.73115C13.6429 9.40061 14.4035 9.86113 15.25 10.0351V11.6101H6C5.27065 11.6101 4.57118 11.8998 4.05546 12.4155C3.53973 12.9313 3.25 13.6307 3.25 14.3601V17.2761C3.25 18.3421 3.602 19.3761 4.25 20.2231V25.3601C4.25 26.0894 4.53973 26.7889 5.05546 27.3046C5.57118 27.8203 6.27065 28.1101 7 28.1101H25C25.7293 28.1101 26.4288 27.8203 26.9445 27.3046C27.4603 26.7889 27.75 26.0894 27.75 25.3601V20.2231C28.398 19.3773 28.7494 18.3416 28.75 17.2761V14.3601ZM13.75 6.36008C13.75 4.43508 15.25 2.93408 16 2.30508C16.75 2.93008 18.25 4.43008 18.25 6.36008C18.25 6.95681 18.0129 7.52911 17.591 7.95107C17.169 8.37302 16.5967 8.61008 16 8.61008C15.4033 8.61008 14.831 8.37302 14.409 7.95107C13.9871 7.52911 13.75 6.95681 13.75 6.36008ZM4.75 14.3601C4.75 14.0286 4.8817 13.7106 5.11612 13.4762C5.35054 13.2418 5.66848 13.1101 6 13.1101H26C26.3315 13.1101 26.6495 13.2418 26.8839 13.4762C27.1183 13.7106 27.25 14.0286 27.25 14.3601V17.2761C27.25 19.0661 25.834 20.5611 24.093 20.6091C23.6585 20.6215 23.226 20.5467 22.8209 20.389C22.4159 20.2313 22.0466 19.994 21.7349 19.691C21.4232 19.3881 21.1754 19.0257 21.0063 18.6254C20.8371 18.225 20.75 17.7947 20.75 17.3601C20.75 17.1612 20.671 16.9704 20.5303 16.8297C20.3897 16.6891 20.1989 16.6101 20 16.6101C19.8011 16.6101 19.6103 16.6891 19.4697 16.8297C19.329 16.9704 19.25 17.1612 19.25 17.3601C19.25 18.222 18.9076 19.0487 18.2981 19.6582C17.6886 20.2677 16.862 20.6101 16 20.6101C15.138 20.6101 14.3114 20.2677 13.7019 19.6582C13.0924 19.0487 12.75 18.222 12.75 17.3601C12.75 17.1612 12.671 16.9704 12.5303 16.8297C12.3897 16.6891 12.1989 16.6101 12 16.6101C11.8011 16.6101 11.6103 16.6891 11.4697 16.8297C11.329 16.9704 11.25 17.1612 11.25 17.3601C11.25 17.7948 11.1629 18.2251 10.9937 18.6255C10.8246 19.0259 10.5768 19.3884 10.2652 19.6914C9.95347 19.9944 9.58419 20.2318 9.17914 20.3896C8.7741 20.5474 8.34152 20.6224 7.907 20.6101C6.167 20.5611 4.75 19.0661 4.75 17.2761V14.3601ZM25 26.6101H7C6.66848 26.6101 6.35054 26.4784 6.11612 26.244C5.8817 26.0095 5.75 25.6916 5.75 25.3601V21.5241C6.39799 21.8875 7.12437 22.0886 7.867 22.1101C8.50232 22.1291 9.13496 22.0198 9.72706 21.7887C10.3192 21.5576 10.8586 21.2095 11.313 20.7651C11.573 20.5111 11.803 20.2281 12 19.9221C12.4297 20.593 13.0213 21.1451 13.7203 21.5275C14.4193 21.9099 15.2032 22.1103 16 22.1103C16.7968 22.1103 17.5807 21.9099 18.2797 21.5275C18.9787 21.1451 19.5703 20.593 20 19.9221C20.198 20.2281 20.43 20.5111 20.69 20.7651C21.5742 21.6302 22.763 22.1132 24 22.1101H24.134C24.8763 22.0884 25.6023 21.8873 26.25 21.5241V25.3601C26.25 25.6916 26.1183 26.0095 25.8839 26.244C25.6495 26.4784 25.3315 26.6101 25 26.6101Z" fill="#22C1C1"/>
</g>
</g>
</g>
<defs>
<clipPath id="clip0_21_24">
<rect width="32" height="32" fill="white" transform="translate(0 0.360107)"/>
</clipPath>
<clipPath id="clip1_21_24">
<rect width="32" height="32" fill="white" transform="translate(0 0.360107)"/>
</clipPath>
<clipPath id="clip2_21_24">
<rect width="32" height="32" fill="white" transform="translate(0 0.360107)"/>
</clipPath>
</defs>
</svg>
