<svg width="64" height="65" viewBox="0 0 64 65" fill="none" xmlns="http://www.w3.org/2000/svg">
<g clip-path="url(#clip0_21_7)">
<g clip-path="url(#clip1_21_7)">
<path opacity="0.15" d="M32 64.17C49.6731 64.17 64 49.8432 64 32.17C64 14.4969 49.6731 0.170044 32 0.170044C14.3269 0.170044 0 14.4969 0 32.17C0 49.8432 14.3269 64.17 32 64.17Z" fill="#F69134"/>
<path d="M47 31.42H45.75V27.17C45.75 26.7059 45.5656 26.2608 45.2374 25.9326C44.9092 25.6044 44.4641 25.42 44 25.42H41.75V24.17C41.75 23.7059 41.5656 23.2608 41.2374 22.9326C40.9092 22.6044 40.4641 22.42 40 22.42H37C36.5359 22.42 36.0908 22.6044 35.7626 22.9326C35.4344 23.2608 35.25 23.7059 35.25 24.17V31.42H28.75V24.17C28.75 23.7059 28.5656 23.2608 28.2374 22.9326C27.9092 22.6044 27.4641 22.42 27 22.42H24C23.5359 22.42 23.0908 22.6044 22.7626 22.9326C22.4344 23.2608 22.25 23.7059 22.25 24.17V25.42H20C19.5359 25.42 19.0908 25.6044 18.7626 25.9326C18.4344 26.2608 18.25 26.7059 18.25 27.17V31.42H17C16.8011 31.42 16.6103 31.4991 16.4697 31.6397C16.329 31.7804 16.25 31.9711 16.25 32.17C16.25 32.369 16.329 32.5597 16.4697 32.7004C16.6103 32.841 16.8011 32.92 17 32.92H18.25V37.17C18.25 37.6342 18.4344 38.0793 18.7626 38.4075C19.0908 38.7357 19.5359 38.92 20 38.92H22.25V40.17C22.25 40.6342 22.4344 41.0793 22.7626 41.4075C23.0908 41.7357 23.5359 41.92 24 41.92H27C27.4641 41.92 27.9092 41.7357 28.2374 41.4075C28.5656 41.0793 28.75 40.6342 28.75 40.17V32.92H35.25V40.17C35.25 40.6342 35.4344 41.0793 35.7626 41.4075C36.0908 41.7357 36.5359 41.92 37 41.92H40C40.4641 41.92 40.9092 41.7357 41.2374 41.4075C41.5656 41.0793 41.75 40.6342 41.75 40.17V38.92H44C44.4641 38.92 44.9092 38.7357 45.2374 38.4075C45.5656 38.0793 45.75 37.6342 45.75 37.17V32.92H47C47.1989 32.92 47.3897 32.841 47.5303 32.7004C47.671 32.5597 47.75 32.369 47.75 32.17C47.75 31.9711 47.671 31.7804 47.5303 31.6397C47.3897 31.4991 47.1989 31.42 47 31.42ZM20 37.42C19.9337 37.42 19.8701 37.3937 19.8232 37.3468C19.7763 37.2999 19.75 37.2363 19.75 37.17V27.17C19.75 27.1037 19.7763 27.0402 19.8232 26.9933C19.8701 26.9464 19.9337 26.92 20 26.92H22.25V37.42H20ZM27.25 40.17C27.25 40.2363 27.2237 40.2999 27.1768 40.3468C27.1299 40.3937 27.0663 40.42 27 40.42H24C23.9337 40.42 23.8701 40.3937 23.8232 40.3468C23.7763 40.2999 23.75 40.2363 23.75 40.17V24.17C23.75 24.1037 23.7763 24.0402 23.8232 23.9933C23.8701 23.9464 23.9337 23.92 24 23.92H27C27.0663 23.92 27.1299 23.9464 27.1768 23.9933C27.2237 24.0402 27.25 24.1037 27.25 24.17V40.17ZM40.25 40.17C40.25 40.2363 40.2237 40.2999 40.1768 40.3468C40.1299 40.3937 40.0663 40.42 40 40.42H37C36.9337 40.42 36.8701 40.3937 36.8232 40.3468C36.7763 40.2999 36.75 40.2363 36.75 40.17V24.17C36.75 24.1037 36.7763 24.0402 36.8232 23.9933C36.8701 23.9464 36.9337 23.92 37 23.92H40C40.0663 23.92 40.1299 23.9464 40.1768 23.9933C40.2237 24.0402 40.25 24.1037 40.25 24.17V40.17ZM44.25 37.17C44.25 37.2363 44.2237 37.2999 44.1768 37.3468C44.1299 37.3937 44.0663 37.42 44 37.42H41.75V26.92H44C44.0663 26.92 44.1299 26.9464 44.1768 26.9933C44.2237 27.0402 44.25 27.1037 44.25 27.17V37.17Z" fill="#F69134"/>
</g>
</g>
<defs>
<clipPath id="clip0_21_7">
<rect width="64" height="64" fill="white" transform="translate(0 0.170044)"/>
</clipPath>
<clipPath id="clip1_21_7">
<rect width="64" height="64" fill="white" transform="translate(0 0.170044)"/>
</clipPath>
</defs>
</svg>
