<svg width="32" height="33" viewBox="0 0 32 33" fill="none" xmlns="http://www.w3.org/2000/svg">
<g clip-path="url(#clip0_21_20)">
<g clip-path="url(#clip1_21_20)">
<path d="M10.4399 28.36H19.5939C25.3679 28.36 27.9999 24.092 27.9999 20.13C27.9566 19.2009 27.7253 18.2902 27.3199 17.453C26.915 16.6173 26.3441 15.8728 25.6419 15.265C24.2036 13.8841 22.2994 13.0933 20.3059 13.049C18.9753 13.1232 17.6848 13.5318 16.5539 14.237C15.4197 14.9444 14.481 15.925 13.8239 17.089C13.2835 16.0054 12.7452 14.9207 12.2089 13.835H13.9059C14.4089 13.804 14.8859 13.603 15.2609 13.265C15.6369 12.927 15.8889 12.472 15.9759 11.973C16.2913 11.7078 16.542 11.3742 16.7089 10.9974C16.8758 10.6207 16.9545 10.2108 16.9389 9.79902C16.9389 6.84402 13.6549 5.36102 11.8289 5.36102C9.33594 5.30202 8.61294 7.12402 7.96594 8.75402L7.93794 8.82702C7.53394 9.86902 3.99994 19.108 3.99994 21.914C3.99242 23.6254 4.65418 25.2719 5.84394 26.502C6.44297 27.1084 7.15971 27.5859 7.95009 27.9051C8.74047 28.2243 9.58779 28.3784 10.4399 28.358V28.36ZM9.42994 9.42002C10.1299 7.65702 10.5189 6.97602 11.7599 6.97602H11.8149C13.0099 6.97602 15.3349 7.97202 15.3349 9.80001C15.3559 9.98401 15.3279 10.17 15.2529 10.339C15.1517 10.2024 15.0279 10.0841 14.8869 9.98902C14.7666 9.90391 14.6242 9.85562 14.4769 9.85002H14.0509C13.6359 9.32302 12.3599 8.38802 11.3669 8.56402L12.4069 9.89402H13.8919L14.1069 10.41C14.3729 11.047 14.2809 11.365 14.1949 11.503C14.159 11.5612 14.1103 11.6105 14.0524 11.6469C13.9945 11.6833 13.929 11.7059 13.8609 11.713H8.82594L9.32094 12.363C9.53794 12.647 9.82694 12.869 10.1099 13.038C10.1119 13.159 10.1399 13.278 10.1939 13.388L10.4159 13.835V13.837C10.8859 14.785 11.9759 16.981 12.5609 18.153C12.5409 18.182 12.5209 18.212 12.5029 18.242L10.1829 22.035C10.0721 22.2176 10.0377 22.4364 10.0871 22.6442C10.1365 22.852 10.2658 23.0319 10.4469 23.145C10.5366 23.2007 10.6364 23.2381 10.7406 23.2549C10.8447 23.2717 10.9512 23.2677 11.0538 23.243C11.1564 23.2184 11.2531 23.1736 11.3383 23.1113C11.4235 23.049 11.4954 22.9704 11.5499 22.88L13.6339 19.47C13.7054 19.487 13.7785 19.4961 13.8519 19.497C13.9339 19.494 14.0139 19.481 14.0919 19.459L16.2439 23.028C16.3542 23.2097 16.5321 23.3402 16.7384 23.391C16.9448 23.4418 17.1629 23.4087 17.3449 23.299C17.4355 23.244 17.5143 23.1717 17.5768 23.0863C17.6394 23.0008 17.6845 22.9039 17.7096 22.801C17.7347 22.6981 17.7392 22.5912 17.723 22.4866C17.7067 22.3819 17.67 22.2815 17.6149 22.191L15.2389 18.251C15.2046 18.1945 15.1668 18.14 15.1259 18.088C15.6214 17.1172 16.3593 16.2909 17.2679 15.689C18.1742 15.0894 19.2207 14.7355 20.3049 14.662C21.8946 14.7039 23.4108 15.3405 24.5539 16.446C25.091 16.9064 25.5307 17.4694 25.8472 18.102C26.1637 18.7347 26.3506 19.4241 26.3969 20.13C26.3959 23.423 24.2919 26.746 19.5939 26.746H10.4399C9.80113 26.7646 9.16525 26.6525 8.57131 26.4166C7.97736 26.1807 7.43788 25.8259 6.98594 25.374C6.09324 24.4502 5.59756 23.2137 5.60494 21.929C5.60494 19.799 8.36794 12.171 9.42994 9.42002Z" fill="#9747FF"/>
</g>
</g>
<defs>
<clipPath id="clip0_21_20">
<rect width="32" height="32" fill="white" transform="translate(0 0.360107)"/>
</clipPath>
<clipPath id="clip1_21_20">
<rect width="32" height="32" fill="white" transform="translate(0 0.360107)"/>
</clipPath>
</defs>
</svg>
