<svg width="64" height="65" viewBox="0 0 64 65" fill="none" xmlns="http://www.w3.org/2000/svg">
<g clip-path="url(#clip0_21_11)">
<g clip-path="url(#clip1_21_11)">
<g clip-path="url(#clip2_21_11)">
<path opacity="0.15" d="M32 64.17C49.6731 64.17 64 49.8432 64 32.17C64 14.4969 49.6731 0.170044 32 0.170044C14.3269 0.170044 0 14.4969 0 32.17C0 49.8432 14.3269 64.17 32 64.17Z" fill="#22C1C1"/>
<path d="M45.7499 28.17C45.7499 28.369 45.6709 28.5597 45.5303 28.7004C45.3896 28.841 45.1989 28.92 44.9999 28.92H42.7499V31.17C42.7499 31.369 42.6709 31.5597 42.5303 31.7004C42.3896 31.841 42.1989 31.92 41.9999 31.92C41.801 31.92 41.6103 31.841 41.4696 31.7004C41.329 31.5597 41.2499 31.369 41.2499 31.17V28.92H38.9999C38.801 28.92 38.6103 28.841 38.4696 28.7004C38.329 28.5597 38.2499 28.369 38.2499 28.17C38.2499 27.9711 38.329 27.7804 38.4696 27.6397C38.6103 27.4991 38.801 27.42 38.9999 27.42H41.2499V25.17C41.2499 24.9711 41.329 24.7804 41.4696 24.6397C41.6103 24.4991 41.801 24.42 41.9999 24.42C42.1989 24.42 42.3896 24.4991 42.5303 24.6397C42.6709 24.7804 42.7499 24.9711 42.7499 25.17V27.42H44.9999C45.1989 27.42 45.3896 27.4991 45.5303 27.6397C45.6709 27.7804 45.7499 27.9711 45.7499 28.17ZM33.9999 22.92H35.2499V24.17C35.2499 24.369 35.329 24.5597 35.4696 24.7004C35.6103 24.841 35.801 24.92 35.9999 24.92C36.1989 24.92 36.3896 24.841 36.5303 24.7004C36.6709 24.5597 36.7499 24.369 36.7499 24.17V22.92H37.9999C38.1989 22.92 38.3896 22.841 38.5303 22.7004C38.6709 22.5597 38.7499 22.369 38.7499 22.17C38.7499 21.9711 38.6709 21.7804 38.5303 21.6397C38.3896 21.4991 38.1989 21.42 37.9999 21.42H36.7499V20.17C36.7499 19.9711 36.6709 19.7804 36.5303 19.6397C36.3896 19.4991 36.1989 19.42 35.9999 19.42C35.801 19.42 35.6103 19.4991 35.4696 19.6397C35.329 19.7804 35.2499 19.9711 35.2499 20.17V21.42H33.9999C33.801 21.42 33.6103 21.4991 33.4696 21.6397C33.329 21.7804 33.2499 21.9711 33.2499 22.17C33.2499 22.369 33.329 22.5597 33.4696 22.7004C33.6103 22.841 33.801 22.92 33.9999 22.92ZM42.9059 35.455C42.9932 35.5567 43.0517 35.6799 43.0753 35.8118C43.0988 35.9437 43.0866 36.0795 43.0399 36.205C42.3615 38.0591 41.2268 39.7123 39.7407 41.012C38.2546 42.3117 36.465 43.2161 34.5371 43.6416C32.6092 44.067 30.6052 43.9999 28.7101 43.4464C26.815 42.8928 25.0899 41.8708 23.6941 40.4745C22.2983 39.0782 21.2768 37.3528 20.7239 35.4575C20.171 33.5622 20.1045 31.5582 20.5306 29.6305C20.9567 27.7027 21.8617 25.9134 23.1619 24.4277C24.4621 22.942 26.1157 21.8079 27.9699 21.13C28.0948 21.0847 28.2294 21.0734 28.36 21.0971C28.4907 21.1209 28.6127 21.1789 28.7136 21.2652C28.8145 21.3516 28.8906 21.4631 28.9343 21.5886C28.9779 21.714 28.9874 21.8487 28.9619 21.979C28.604 23.7933 28.6982 25.6677 29.2364 27.4369C29.7746 29.206 30.7401 30.8155 32.0478 32.123C33.3554 33.4305 34.9649 34.396 36.7341 34.934C38.5033 35.4721 40.3778 35.5662 42.1919 35.208C42.3222 35.1823 42.4569 35.1917 42.5823 35.2351C42.7078 35.2785 42.8194 35.3544 42.9059 35.455ZM41.1099 36.873C39.2558 37.0327 37.3891 36.785 35.6408 36.1473C33.8924 35.5096 32.3046 34.4973 30.9887 33.1813C29.6727 31.8654 28.6604 30.2776 28.0227 28.5292C27.385 26.7809 27.1373 24.9142 27.2969 23.06C25.501 23.9875 24.0194 25.4253 23.0385 27.1926C22.0577 28.96 21.6214 30.9779 21.7845 32.9926C21.9476 35.0073 22.7028 36.9288 23.9552 38.5153C25.2076 40.1018 26.9012 41.2826 28.8229 41.909C31.1355 42.6643 33.6412 42.5723 35.8922 41.6497C38.1432 40.7271 39.9927 39.034 41.1099 36.873Z" fill="#22C1C1"/>
</g>
</g>
</g>
<defs>
<clipPath id="clip0_21_11">
<rect width="64" height="64" fill="white" transform="translate(0 0.170044)"/>
</clipPath>
<clipPath id="clip1_21_11">
<rect width="64" height="64" fill="white" transform="translate(0 0.170044)"/>
</clipPath>
<clipPath id="clip2_21_11">
<rect width="64" height="64" fill="white" transform="translate(0 0.170044)"/>
</clipPath>
</defs>
</svg>
