<svg width="32" height="33" viewBox="0 0 32 33" fill="none" xmlns="http://www.w3.org/2000/svg">
<g clip-path="url(#clip0_21_16)">
<g clip-path="url(#clip1_21_16)">
<path d="M26 3.61011H21C20.8011 3.61011 20.6103 3.68912 20.4697 3.82978C20.329 3.97043 20.25 4.1612 20.25 4.36011C20.25 4.55902 20.329 4.74979 20.4697 4.89044C20.6103 5.03109 20.8011 5.11011 21 5.11011H24.19L20.44 8.85211C19.5579 7.97796 18.4786 7.3286 17.2931 6.95873C16.1075 6.58886 14.8505 6.50931 13.6278 6.72677C12.4051 6.94424 11.2525 7.45235 10.2673 8.20832C9.28196 8.96428 8.49277 9.94596 7.96615 11.0707C7.43954 12.1954 7.19091 13.4301 7.24123 14.671C7.29154 15.9119 7.63932 17.1225 8.25527 18.2009C8.87121 19.2792 9.73729 20.1938 10.7805 20.8675C11.8238 21.5412 13.0137 21.9543 14.25 22.0721V24.6101H11C10.8011 24.6101 10.6103 24.6891 10.4697 24.8298C10.329 24.9704 10.25 25.1612 10.25 25.3601C10.25 25.559 10.329 25.7498 10.4697 25.8904C10.6103 26.0311 10.8011 26.1101 11 26.1101H14.25V29.3601C14.25 29.559 14.329 29.7498 14.4697 29.8904C14.6103 30.0311 14.8011 30.1101 15 30.1101C15.1989 30.1101 15.3897 30.0311 15.5303 29.8904C15.671 29.7498 15.75 29.559 15.75 29.3601V26.1101H19C19.1989 26.1101 19.3897 26.0311 19.5303 25.8904C19.671 25.7498 19.75 25.559 19.75 25.3601C19.75 25.1612 19.671 24.9704 19.5303 24.8298C19.3897 24.6891 19.1989 24.6101 19 24.6101H15.75V22.0721C17.0873 21.9412 18.3677 21.4649 19.4653 20.6898C20.563 19.9148 21.4403 18.8676 22.0111 17.6511C22.582 16.4347 22.8267 15.0907 22.7213 13.7511C22.6159 12.4115 22.164 11.1223 21.41 10.0101L25.25 6.17011V9.36011C25.25 9.55902 25.329 9.74978 25.4697 9.89044C25.6103 10.0311 25.8011 10.1101 26 10.1101C26.1989 10.1101 26.3897 10.0311 26.5303 9.89044C26.671 9.74978 26.75 9.55902 26.75 9.36011V4.36011C26.75 4.1612 26.671 3.97043 26.5303 3.82978C26.3897 3.68912 26.1989 3.61011 26 3.61011ZM15 20.6101C13.7639 20.6101 12.5555 20.2436 11.5277 19.5568C10.4999 18.87 9.69879 17.8939 9.22574 16.7519C8.75269 15.6098 8.62892 14.3532 8.87008 13.1408C9.11124 11.9284 9.70649 10.8148 10.5806 9.94069C11.4546 9.06661 12.5683 8.47136 13.7807 8.2302C14.9931 7.98904 16.2497 8.11281 17.3918 8.58586C18.5338 9.05891 19.5099 9.85999 20.1967 10.8878C20.8834 11.9156 21.25 13.124 21.25 14.3601C21.2481 16.0171 20.5891 17.6058 19.4174 18.7775C18.2457 19.9492 16.657 20.6083 15 20.6101Z" fill="#F24E1E"/>
</g>
</g>
<defs>
<clipPath id="clip0_21_16">
<rect width="32" height="32" fill="white" transform="translate(0 0.360107)"/>
</clipPath>
<clipPath id="clip1_21_16">
<rect width="32" height="32" fill="white" transform="translate(0 0.360107)"/>
</clipPath>
</defs>
</svg>
