<svg width="32" height="33" viewBox="0 0 32 33" fill="none" xmlns="http://www.w3.org/2000/svg">
<g clip-path="url(#clip0_21_28)">
<path d="M11.5 17.6101C11.1685 17.6101 10.8505 17.4784 10.6161 17.244C10.3817 17.0096 10.25 16.6916 10.25 16.3601C10.25 16.0286 10.3817 15.7106 10.6161 15.4762C10.8505 15.2418 11.1685 15.1101 11.5 15.1101C11.8315 15.1101 12.1495 15.2418 12.3839 15.4762C12.6183 15.7106 12.75 16.0286 12.75 16.3601C12.75 16.6916 12.6183 17.0096 12.3839 17.244C12.1495 17.4784 11.8315 17.6101 11.5 17.6101ZM20.5 15.1101C20.1685 15.1101 19.8505 15.2418 19.6161 15.4762C19.3817 15.7106 19.25 16.0286 19.25 16.3601C19.25 16.6916 19.3817 17.0096 19.6161 17.244C19.8505 17.4784 20.1685 17.6101 20.5 17.6101C20.8315 17.6101 21.1495 17.4784 21.3839 17.244C21.6183 17.0096 21.75 16.6916 21.75 16.3601C21.75 16.0286 21.6183 15.7106 21.3839 15.4762C21.1495 15.2418 20.8315 15.1101 20.5 15.1101ZM19.1 20.7251C18.1694 21.3032 17.0956 21.6096 16 21.6096C14.9044 21.6096 13.8307 21.3032 12.9 20.7251C12.7316 20.619 12.5279 20.5842 12.3338 20.6283C12.1397 20.6723 11.9711 20.7917 11.865 20.9601C11.7589 21.1285 11.7241 21.3322 11.7682 21.5263C11.8122 21.7204 11.9316 21.889 12.1 21.9951C13.2702 22.7242 14.6213 23.1107 16 23.1107C17.3787 23.1107 18.7298 22.7242 19.9 21.9951C20.0605 21.8855 20.1722 21.7179 20.2118 21.5276C20.2513 21.3373 20.2155 21.1391 20.1119 20.9747C20.0083 20.8102 19.845 20.6923 19.6563 20.6458C19.4676 20.5993 19.2682 20.6277 19.1 20.7251ZM28.75 16.3601C28.75 18.8818 28.0022 21.3469 26.6012 23.4436C25.2003 25.5404 23.209 27.1746 20.8792 28.1396C18.5495 29.1046 15.9859 29.3571 13.5126 28.8651C11.0393 28.3732 8.76751 27.1588 6.98439 25.3757C5.20127 23.5926 3.98696 21.3208 3.49499 18.8475C3.00303 16.3743 3.25552 13.8107 4.22054 11.4809C5.18556 9.15114 6.81976 7.15986 8.91648 5.75887C11.0132 4.35788 13.4783 3.61011 16 3.61011C19.3803 3.61408 22.621 4.95865 25.0112 7.34888C27.4015 9.73911 28.746 12.9798 28.75 16.3601ZM27.25 16.3601C27.2467 13.4408 26.1101 10.6368 24.0797 8.53919C22.0492 6.44161 19.2837 5.21434 16.366 5.11611C14.787 7.26411 14.75 9.34111 14.75 9.36011C14.75 9.69163 14.8817 10.0096 15.1161 10.244C15.3505 10.4784 15.6685 10.6101 16 10.6101C16.3315 10.6101 16.6495 10.4784 16.8839 10.244C17.1183 10.0096 17.25 9.69163 17.25 9.36011C17.25 9.1612 17.329 8.97043 17.4697 8.82978C17.6103 8.68913 17.8011 8.61011 18 8.61011C18.1989 8.61011 18.3897 8.68913 18.5303 8.82978C18.671 8.97043 18.75 9.1612 18.75 9.36011C18.75 10.0895 18.4603 10.7889 17.9445 11.3047C17.4288 11.8204 16.7294 12.1101 16 12.1101C15.2707 12.1101 14.5712 11.8204 14.0555 11.3047C13.5397 10.7889 13.25 10.0895 13.25 9.36011C13.25 9.26611 13.269 7.38211 14.518 5.20811C12.3751 5.49289 10.3595 6.38906 8.71262 7.78939C7.06569 9.18973 5.8571 11.0349 5.23145 13.1042C4.60581 15.1735 4.58961 17.3792 5.18479 19.4574C5.77997 21.5356 6.96132 23.3984 8.5875 24.8228C10.2137 26.2471 12.2158 27.1728 14.3543 27.489C16.4929 27.8053 18.6772 27.4987 20.6461 26.6059C22.6149 25.7131 24.2848 24.272 25.456 22.4549C26.6271 20.6379 27.25 18.5219 27.25 16.3601Z" fill="#FFC700"/>
</g>
<defs>
<clipPath id="clip0_21_28">
<rect width="32" height="32" fill="white" transform="translate(0 0.360107)"/>
</clipPath>
</defs>
</svg>
