<svg width="64" height="65" viewBox="0 0 64 65" fill="none" xmlns="http://www.w3.org/2000/svg">
<g clip-path="url(#clip0_21_3)">
<g clip-path="url(#clip1_21_3)">
<path opacity="0.15" d="M32 64.17C49.6731 64.17 64 49.8432 64 32.17C64 14.4969 49.6731 0.170044 32 0.170044C14.3269 0.170044 0 14.4969 0 32.17C0 49.8432 14.3269 64.17 32 64.17Z" fill="#F21E84"/>
<path d="M44 29.42H42.721C42.5217 26.7129 41.3057 24.1813 39.3171 22.3337C37.3285 20.486 34.7145 19.4591 32 19.4591C29.2855 19.4591 26.6715 20.486 24.6829 22.3337C22.6943 24.1813 21.4783 26.7129 21.279 29.42H20C19.8011 29.42 19.6103 29.499 19.4697 29.6397C19.329 29.7803 19.25 29.9711 19.25 30.17C19.2544 32.5282 19.9105 34.8393 21.1458 36.8481C22.381 38.8568 24.1475 40.4851 26.25 41.553V42.17C26.25 42.6341 26.4344 43.0793 26.7626 43.4075C27.0908 43.7356 27.5359 43.92 28 43.92H36C36.4641 43.92 36.9092 43.7356 37.2374 43.4075C37.5656 43.0793 37.75 42.6341 37.75 42.17V41.553C39.8526 40.4852 41.6191 38.8569 42.8544 36.8481C44.0897 34.8394 44.7457 32.5282 44.75 30.17C44.75 29.9711 44.671 29.7803 44.5303 29.6397C44.3897 29.499 44.1989 29.42 44 29.42ZM37.78 22.956C38.143 23.246 38.483 23.564 38.799 23.906C37.4068 24.3394 36.1174 25.0518 35.0095 25.9998C33.9016 26.9478 32.9984 28.1115 32.355 29.42H28.168C28.7587 27.5388 29.9332 25.8947 31.5212 24.7259C33.1092 23.5572 35.0283 22.9247 37 22.92C37.26 22.92 37.521 22.934 37.78 22.956ZM39.788 25.187C40.6058 26.4588 41.097 27.9128 41.218 29.42H34.06C34.687 28.3706 35.5161 27.456 36.4992 26.7294C37.4822 26.0028 38.6008 25.4785 39.788 25.187ZM32 20.92C33.1458 20.9182 34.2819 21.1301 35.35 21.545C33.287 21.8708 31.3629 22.7882 29.8112 24.1861C28.2594 25.584 27.1467 27.4021 26.608 29.42H22.782C22.9728 27.1055 24.0263 24.9471 25.7337 23.3727C27.441 21.7984 29.6776 20.9229 32 20.92ZM36.688 40.4C36.5572 40.4599 36.4463 40.5561 36.3687 40.6772C36.291 40.7983 36.2498 40.9392 36.25 41.083V42.17C36.25 42.2363 36.2237 42.2999 36.1768 42.3468C36.1299 42.3937 36.0663 42.42 36 42.42H28C27.9337 42.42 27.8701 42.3937 27.8232 42.3468C27.7763 42.2999 27.75 42.2363 27.75 42.17V41.083C27.7502 40.9392 27.709 40.7983 27.6313 40.6772C27.5537 40.5561 27.4428 40.4599 27.312 40.4C25.4723 39.5515 23.8947 38.2236 22.7445 36.5557C21.5944 34.8878 20.9141 32.9412 20.775 30.92H43.225C43.0858 32.9413 42.4053 34.888 41.255 36.5559C40.1047 38.2238 38.5279 39.5516 36.688 40.4Z" fill="#F21E84"/>
</g>
</g>
<defs>
<clipPath id="clip0_21_3">
<rect width="64" height="64" fill="white" transform="translate(0 0.170044)"/>
</clipPath>
<clipPath id="clip1_21_3">
<rect width="64" height="64" fill="white" transform="translate(0 0.170044)"/>
</clipPath>
</defs>
</svg>
