<svg width="64" height="64" viewBox="0 0 64 64" fill="none" xmlns="http://www.w3.org/2000/svg">
<g clip-path="url(#clip0_21_35)">
<g clip-path="url(#clip1_21_35)">
<path d="M32 2.62701C31.457 2.62701 30.906 2.631 30.366 2.664C29.1712 2.7382 27.982 2.88514 26.805 3.10401C26.675 3.12701 26.548 3.153 26.419 3.178C26.309 3.199 26.199 3.21 26.089 3.233C26.027 3.243 25.966 3.257 25.905 3.27C25.845 3.283 25.783 3.293 25.721 3.306C25.0795 3.44395 24.4428 3.60337 23.812 3.784C23.751 3.801 23.689 3.821 23.628 3.839C23.597 3.848 23.568 3.86601 23.537 3.87501C23.446 3.90301 23.351 3.921 23.261 3.949C23.089 4.007 22.92 4.075 22.747 4.132C22.384 4.253 22.021 4.36501 21.664 4.50001C21.62 4.51301 21.579 4.54 21.535 4.555C20.995 4.761 20.462 4.99701 19.938 5.23401C19.405 5.47401 18.875 5.716 18.359 5.987C17.843 6.25901 17.334 6.547 16.835 6.85C16.812 6.864 16.785 6.872 16.761 6.886C16.288 7.173 15.822 7.473 15.366 7.786C14.6121 8.30833 13.8829 8.86561 13.181 9.45601C12.914 9.67901 12.651 9.905 12.391 10.136C12.344 10.179 12.293 10.221 12.245 10.265C11.968 10.516 11.704 10.774 11.437 11.035C11.4 11.072 11.364 11.11 11.327 11.145C10.962 11.507 10.607 11.868 10.262 12.248C10.053 12.477 9.856 12.71 9.656 12.945C9.456 13.179 9.261 13.421 9.068 13.661C8.679 14.145 8.306 14.641 7.948 15.149C7.719 15.475 7.503 15.804 7.288 16.139C7.266 16.173 7.235 16.199 7.213 16.232L7.085 16.434C7.069 16.459 7.046 16.481 7.03 16.507C6.978 16.591 6.933 16.679 6.883 16.764C6.689 17.092 6.499 17.423 6.313 17.756C6.269 17.837 6.212 17.912 6.167 17.994V18.012C5.944 18.424 5.728 18.838 5.524 19.261C5.322 19.681 5.138 20.099 4.955 20.528C4.904 20.648 4.858 20.774 4.808 20.895C4.698 21.164 4.581 21.43 4.478 21.703C4.421 21.855 4.368 22.009 4.313 22.162C4.269 22.284 4.226 22.407 4.184 22.529H4.166C4.111 22.692 4.071 22.861 4.019 23.025C4.004 23.073 3.997 23.124 3.983 23.172C3.973 23.203 3.956 23.232 3.946 23.264C3.883 23.477 3.824 23.691 3.763 23.906V23.924C3.753 23.95 3.733 23.972 3.726 23.998C3.704 24.076 3.693 24.158 3.671 24.237C3.603 24.487 3.531 24.737 3.469 24.989L3.414 25.209C3.391 25.307 3.38 25.407 3.359 25.503C3.271 25.893 3.191 26.285 3.12 26.678C3.11 26.734 3.093 26.788 3.083 26.844C3.077 26.868 3.069 26.893 3.065 26.917C3.008 27.241 2.964 27.562 2.918 27.89C2.918 27.91 2.902 27.926 2.9 27.946C2.883 28.07 2.86 28.188 2.845 28.313H2.863C2.81117 28.728 2.76816 29.1441 2.734 29.561C2.728 29.604 2.72 29.647 2.716 29.69H2.698C2.678 29.945 2.672 30.204 2.662 30.461V30.516C2.63723 31.0113 2.62489 31.5071 2.625 32.003V32.021C2.625 32.521 2.637 33.013 2.661 33.508V33.526C2.679 33.895 2.704 34.263 2.735 34.628C2.745 34.744 2.761 34.86 2.771 34.977V35.05C2.781 35.16 2.795 35.271 2.808 35.38C2.833 35.603 2.868 35.822 2.899 36.042C2.925 36.226 2.944 36.41 2.973 36.592L2.991 36.702C3.06 37.131 3.124 37.548 3.211 37.969C3.306 38.425 3.408 38.881 3.524 39.329C3.53 39.335 3.538 39.339 3.542 39.346V39.365C3.65 39.78 3.765 40.187 3.89 40.595C3.906 40.645 3.93 40.692 3.946 40.742C4.063 41.112 4.184 41.479 4.313 41.843C4.329 41.887 4.353 41.928 4.368 41.972C4.408 42.081 4.438 42.194 4.478 42.302C4.55 42.492 4.623 42.682 4.698 42.872C4.774 43.062 4.858 43.252 4.938 43.441C5.122 43.88 5.318 44.314 5.525 44.744C5.702 45.114 5.883 45.485 6.075 45.846C6.105 45.902 6.137 45.956 6.167 46.011V46.029C6.335 46.337 6.504 46.627 6.681 46.929C6.745 47.036 6.819 47.135 6.883 47.241C7.042 47.498 7.195 47.757 7.361 48.012L7.471 48.177C7.62 48.402 7.775 48.617 7.93 48.838C7.997 48.935 8.063 49.035 8.132 49.132C8.239 49.282 8.352 49.425 8.462 49.572C8.622 49.787 8.774 50.006 8.94 50.215L8.995 50.289C9.084 50.401 9.179 50.509 9.27 50.619C9.316 50.676 9.37 50.728 9.417 50.784C9.547 50.942 9.668 51.107 9.803 51.262C9.951 51.432 10.111 51.591 10.261 51.757C10.404 51.915 10.537 52.08 10.684 52.235C10.698 52.251 10.724 52.256 10.739 52.272C10.901 52.442 11.069 52.602 11.235 52.767C11.347 52.882 11.45 53.005 11.565 53.117C11.639 53.189 11.71 53.265 11.785 53.337C11.933 53.477 12.091 53.606 12.245 53.741C12.375 53.855 12.5 53.975 12.63 54.089C12.639 54.095 12.642 54.102 12.648 54.108C12.757 54.203 12.868 54.289 12.978 54.383C13.143 54.523 13.306 54.669 13.474 54.805C13.743 55.025 14.024 55.238 14.3 55.448C14.356 55.49 14.41 55.535 14.465 55.577C14.501 55.602 14.54 55.624 14.575 55.65C14.905 55.893 15.227 56.136 15.567 56.366C15.911 56.6 16.26 56.826 16.614 57.046C16.633 57.057 16.65 57.071 16.669 57.082L16.76 57.137C16.992 57.277 17.223 57.407 17.458 57.541C17.634 57.641 17.813 57.737 17.991 57.835C18.101 57.895 18.209 57.959 18.321 58.018C18.613 58.172 18.905 58.315 19.202 58.458C19.219 58.467 19.24 58.468 19.257 58.478C19.452 58.57 19.648 58.663 19.845 58.752C19.987 58.817 20.125 58.892 20.267 58.955C20.363 58.996 20.463 59.027 20.561 59.065C20.648 59.098 20.731 59.139 20.818 59.175C21.109 59.295 21.403 59.413 21.699 59.524L21.901 59.597L21.956 59.615C21.969 59.621 21.98 59.629 21.993 59.633C22.297 59.743 22.603 59.845 22.911 59.946C22.996 59.973 23.083 59.992 23.168 60.019L23.407 60.092C23.56 60.14 23.711 60.195 23.866 60.239C24.128 60.315 24.391 60.392 24.656 60.459C25.044 60.559 25.436 60.651 25.83 60.735L25.996 60.772C26.063 60.786 26.13 60.795 26.198 60.808C26.638 60.896 27.073 60.978 27.52 61.047C27.92 61.107 28.326 61.149 28.731 61.193C28.775 61.2 28.817 61.208 28.86 61.212C28.97 61.223 29.08 61.238 29.19 61.248L29.41 61.266C29.691 61.291 29.972 61.305 30.255 61.321C30.335 61.327 30.415 61.336 30.494 61.34C30.9957 61.3632 31.4978 61.3752 32 61.376C32.9932 61.3777 33.9858 61.3287 34.974 61.229H35.01C35.5935 61.166 36.1751 61.0863 36.754 60.99C36.841 60.976 36.925 60.968 37.011 60.954C37.122 60.934 37.231 60.919 37.341 60.898C37.701 60.832 38.069 60.758 38.425 60.678C38.499 60.662 38.572 60.64 38.645 60.623C38.849 60.576 39.05 60.525 39.251 60.476C39.294 60.466 39.337 60.45 39.38 60.44C39.44 60.424 39.503 60.42 39.563 60.403C39.68 60.373 39.796 60.344 39.912 60.312L40.224 60.22C40.398 60.17 40.566 60.107 40.738 60.054C40.866 60.015 40.997 59.986 41.124 59.944C41.136 59.939 41.147 59.93 41.161 59.926C41.474 59.823 41.789 59.709 42.097 59.596L42.391 59.486L42.721 59.356C43.111 59.204 43.497 59.03 43.878 58.861C43.938 58.835 44.002 58.815 44.062 58.788L44.227 58.714C45.8068 57.9878 47.3185 57.1217 48.744 56.126C49.022 55.932 49.298 55.741 49.57 55.538L49.79 55.373C49.841 55.333 49.885 55.284 49.937 55.244C50.227 55.02 50.519 54.799 50.8 54.564C51.4286 54.0391 52.0351 53.4883 52.618 52.913L52.709 52.821L52.764 52.766C53.064 52.466 53.358 52.16 53.645 51.847C53.675 51.816 53.708 51.787 53.737 51.756C54.31 51.1189 54.8552 50.4573 55.371 49.773C55.9542 49.0106 56.4995 48.22 57.005 47.404C57.04 47.348 57.081 47.294 57.115 47.239C57.215 47.076 57.313 46.909 57.409 46.743C57.542 46.523 57.672 46.307 57.795 46.083C57.805 46.063 57.821 46.047 57.832 46.027V46.009C58.064 45.581 58.282 45.146 58.492 44.705C58.688 44.298 58.885 43.875 59.062 43.457V43.439C59.085 43.383 59.112 43.329 59.136 43.273C59.298 42.885 59.451 42.493 59.595 42.098C59.644 41.965 59.677 41.828 59.723 41.694C59.813 41.439 59.898 41.182 59.98 40.924C60.108 40.523 60.237 40.12 60.347 39.712C60.457 39.307 60.549 38.892 60.641 38.482C60.75 38.001 60.851 37.52 60.935 37.031V37.013C61.004 36.615 61.066 36.222 61.119 35.819C61.131 35.721 61.144 35.624 61.155 35.526C61.208 35.078 61.25 34.621 61.283 34.166C61.333 33.475 61.373 32.779 61.375 32.074V32C61.375 30.14 61.191 28.328 60.861 26.565C60.831 26.406 60.801 26.245 60.769 26.087C60.737 25.927 60.694 25.769 60.659 25.61C60.2599 23.791 59.688 22.0143 58.951 20.304C58.889 20.161 58.815 20.024 58.749 19.882C58.656 19.681 58.569 19.476 58.474 19.276C58.456 19.239 58.436 19.203 58.419 19.166V19.147C58.2315 18.7635 58.0358 18.3841 57.832 18.009V17.991C57.635 17.63 57.418 17.277 57.207 16.926C57.177 16.876 57.145 16.828 57.115 16.779C57.106 16.775 57.125 16.763 57.115 16.761C56.925 16.4514 56.7293 16.1454 56.528 15.843C56.0243 15.0775 55.485 14.3361 54.912 13.621C54.3658 12.9474 53.7902 12.2981 53.187 11.675L53.132 11.62L53.095 11.583C52.795 11.273 52.49 10.979 52.177 10.683C51.2626 9.81432 50.2937 9.005 49.276 8.26C48.6219 7.77912 47.9479 7.32573 47.256 6.901C47.247 6.897 47.246 6.887 47.238 6.883C46.6854 6.55258 46.1221 6.24042 45.549 5.94701C45.119 5.72301 44.687 5.507 44.246 5.304C43.806 5.102 43.356 4.91501 42.906 4.73401C42.893 4.72901 42.881 4.72101 42.868 4.71601C41.502 4.17 40.0967 3.72807 38.664 3.39401L38.517 3.358C38.341 3.318 38.162 3.284 37.984 3.248C37.7281 3.19507 37.4714 3.14606 37.214 3.10101C36.5081 2.97071 35.7976 2.86664 35.084 2.789C34.607 2.739 34.116 2.687 33.633 2.659C33.597 2.659 33.559 2.662 33.523 2.659H33.505C33.0034 2.63424 32.5012 2.62224 31.999 2.623L32.001 2.626L32 2.62701ZM30.054 5.344C30.848 5.443 31.641 5.55101 32.441 5.65601C35.2 6.02101 37.818 6.355 40.281 6.574C42.8079 7.40085 45.1968 8.6015 47.368 10.136C45.338 10.27 43.176 10.322 40.887 10.228C37.832 10.099 34.656 9.746 31.487 9.328C29.247 9.033 27.133 8.718 25.097 8.465C23.492 8.265 21.882 8.106 20.268 7.988C23.3299 6.4863 26.6525 5.58861 30.054 5.344ZM19.516 11.532C21.6375 11.5654 23.7567 11.6878 25.868 11.899C28.036 12.108 30.224 12.395 32.441 12.689C35.578 13.103 38.541 13.489 41.291 13.699C44.7242 13.9593 48.1704 14.0021 51.609 13.827C52.3594 14.6456 53.0584 15.5099 53.702 16.415C52.5455 16.6259 51.3821 16.7977 50.214 16.93C47.434 17.238 44.272 17.398 40.887 17.26C37.832 17.131 34.656 16.778 31.487 16.36C29.247 16.065 27.133 15.75 25.097 15.497C23.1633 15.2519 21.2224 15.0685 19.277 14.947C18.0238 14.8695 16.7686 14.8265 15.513 14.818C14.3621 14.8097 13.2111 14.8281 12.061 14.873C11.841 14.883 11.649 14.899 11.437 14.91C12.3992 13.7592 13.4555 12.6905 14.595 11.715C16.2313 11.578 17.873 11.5166 19.515 11.531L19.516 11.532ZM19.516 18.564C21.57 18.587 23.7 18.722 25.868 18.931C28.036 19.14 30.224 19.427 32.441 19.721C35.578 20.135 38.541 20.521 41.291 20.73C44.331 20.966 47.192 21 49.773 20.932C51.9062 20.8743 54.0372 20.7519 56.163 20.565C56.502 21.28 56.823 22.002 57.099 22.75C54.8345 23.3157 52.5342 23.7266 50.214 23.98C47.434 24.288 44.272 24.43 40.887 24.292C40.378 24.27 39.861 24.251 39.345 24.218C37.425 22.405 34.85 21.281 32.001 21.281C30.037 21.281 28.204 21.811 26.621 22.731C26.114 22.661 25.606 22.593 25.097 22.529C23.1633 22.2839 21.2224 22.1005 19.277 21.979C17.977 21.898 16.72 21.859 15.513 21.85C14.3621 21.8417 13.2111 21.8601 12.061 21.905C10.191 21.978 8.555 22.119 7.104 22.254C7.44977 21.3771 7.84199 20.5192 8.279 19.684C9.35978 19.4383 10.45 19.2362 11.547 19.078C14.1869 18.7096 16.8506 18.5377 19.516 18.564ZM19.516 25.596C20.743 25.61 22.006 25.674 23.279 25.761C22.5399 26.7997 21.993 27.9624 21.664 29.194C18.4727 28.8929 15.2648 28.807 12.062 28.937C9.887 29.023 7.968 29.203 6.37 29.359C6.008 29.395 5.721 29.419 5.397 29.451C5.464 28.737 5.567 28.036 5.69 27.34C7.61144 26.7946 9.5685 26.3836 11.547 26.11C14.1869 25.7415 16.8506 25.5697 19.516 25.596ZM58.329 27.395C58.443 28.049 58.521 28.708 58.586 29.378C58.191 29.494 57.773 29.61 57.319 29.727C54.9837 30.3213 52.6095 30.7507 50.214 31.012C47.7143 31.2857 45.2004 31.4083 42.686 31.379C42.6187 30.1528 42.3393 28.9476 41.86 27.817C44.686 28.014 47.357 28.028 49.773 27.964C52.354 27.895 54.653 27.733 56.567 27.56C57.245 27.499 57.767 27.447 58.329 27.395ZM19.516 32.627C20.106 32.635 20.711 32.674 21.315 32.701C21.396 33.965 21.696 35.156 22.178 36.263C21.2124 36.1723 20.2452 36.099 19.277 36.043C16.8744 35.8968 14.466 35.8721 12.061 35.969C10.1604 36.0477 8.26261 36.1824 6.37 36.373C6.071 36.403 5.885 36.425 5.654 36.446C5.54359 35.7884 5.45787 35.127 5.397 34.463C5.474 34.439 5.537 34.413 5.617 34.39C7.56194 33.8354 9.5435 33.4183 11.547 33.142C14.1869 32.7732 16.8506 32.6011 19.516 32.627ZM58.623 34.39C58.5588 35.0911 58.4667 35.7893 58.347 36.483C58.019 36.58 57.686 36.683 57.319 36.777C55.388 37.274 52.994 37.735 50.214 38.044C47.434 38.353 44.272 38.494 40.887 38.356C40.802 38.349 40.717 38.342 40.63 38.338C41.4081 37.2895 41.9868 36.1068 42.337 34.849C44.985 35.021 47.494 35.075 49.773 35.014C52.354 34.946 54.653 34.764 56.567 34.592C57.37 34.52 57.977 34.453 58.623 34.39ZM19.516 39.66C21.2811 39.6872 23.0446 39.7789 24.803 39.935C26.7694 41.7318 29.3373 42.7271 32.001 42.725C33.86 42.725 35.599 42.255 37.123 41.422C38.558 41.594 39.952 41.742 41.291 41.844C44.331 42.08 47.192 42.097 49.773 42.028C52.354 41.959 54.653 41.797 56.567 41.624L56.97 41.587C56.63 42.472 56.224 43.321 55.795 44.157C54.173 44.517 52.312 44.842 50.214 45.076C47.434 45.384 44.272 45.526 40.887 45.388C37.832 45.258 34.656 44.906 31.487 44.488C29.247 44.192 27.133 43.878 25.097 43.625C23.1632 43.3855 21.2222 43.208 19.277 43.093C17.977 43.012 16.72 42.954 15.513 42.946C14.3619 42.9432 13.2109 42.9675 12.061 43.019C10.633 43.0772 9.20662 43.1693 7.783 43.295C7.43786 42.5749 7.12554 41.8394 6.847 41.091C8.39561 40.6989 9.96465 40.3924 11.547 40.173C14.1869 39.8045 16.8506 39.6337 19.516 39.66ZM19.516 46.691C21.57 46.715 23.7 46.849 25.868 47.059C28.036 47.268 30.224 47.573 32.441 47.867C35.578 48.281 38.541 48.648 41.291 48.857C44.331 49.094 47.192 49.129 49.773 49.06C50.747 49.0338 51.7205 48.9908 52.693 48.931C51.7279 50.1081 50.6651 51.2017 49.516 52.2C46.906 52.455 43.996 52.547 40.887 52.42C37.832 52.291 34.656 51.956 31.487 51.538C29.247 51.243 27.133 50.91 25.097 50.658C23.1634 50.4121 21.2224 50.228 19.277 50.106C18.0236 50.0347 16.7684 49.998 15.513 49.996C14.379 49.988 13.293 49.996 12.263 50.033C11.5118 49.2081 10.8127 48.337 10.17 47.425C10.615 47.349 11.07 47.273 11.547 47.205C14.1869 46.8364 16.8506 46.6646 19.516 46.691ZM17.68 53.741C18.277 53.726 18.896 53.736 19.516 53.741C21.57 53.765 23.7 53.9 25.868 54.109C28.036 54.318 30.224 54.587 32.441 54.88C35.578 55.295 38.541 55.68 41.291 55.89C42.107 55.953 42.897 55.995 43.678 56.037C40.2861 57.6922 36.5805 58.6058 32.808 58.717C32.367 58.662 31.928 58.61 31.486 58.552C29.246 58.257 27.133 57.961 25.097 57.708C24.835 57.675 24.584 57.646 24.326 57.616C21.5321 56.7733 18.8959 55.4766 16.523 53.778C16.905 53.76 17.285 53.751 17.68 53.741Z" fill="#B3D3F1"/>
</g>
</g>
<defs>
<clipPath id="clip0_21_35">
<rect width="64" height="64" fill="white"/>
</clipPath>
<clipPath id="clip1_21_35">
<rect width="64" height="64" fill="white"/>
</clipPath>
</defs>
</svg>
